HIERARCHY
ROOT Hips
{
	OFFSET 0.000000 0.000000 0.000000
	CHANNELS 6 Xposition Yposition Zposition Xrotation Yrotation Zrotation
	JOINT LeftUpLeg_virtual
	{
		OFFSET 0.000000 0.000000 0.000000
		CHANNELS 3 Xrotation Yrotation Zrotation
		JOINT LeftUpLeg
		{
			OFFSET 10.205400 -3.823500 0.155100
			CHANNELS 3 Xrotation Yrotation Zrotation
			JOINT LeftLeg
			{
				OFFSET 0.708757 -12.982077 0.567790
				CHANNELS 3 Xrotation Yrotation Zrotation
				JOINT LeftFoot
				{
					OFFSET -0.708756 -10.717838 -2.184338
					CHANNELS 3 Xrotation Yrotation Zrotation
					JOINT LeftToeBase
					{
						OFFSET 0.108149 -7.191104 7.560241
						CHANNELS 3 Xrotation Yrotation Zrotation
						JOINT LeftToe_End
						{
							OFFSET 0.070230 0.081724 4.490308
							CHANNELS 3 Xrotation Yrotation Zrotation
							End Site
							{
								OFFSET 0 0 0
							}
						}
					}
				}
			}
		}
	}
	JOINT RightUpLeg_virtual
	{
		OFFSET 0.000000 0.000000 0.000000
		CHANNELS 3 Xrotation Yrotation Zrotation
		JOINT RightUpLeg
		{
			OFFSET -10.205400 -3.823500 0.005500
			CHANNELS 3 Xrotation Yrotation Zrotation
			JOINT RightLeg
			{
				OFFSET -0.708756 -12.982134 0.610632
				CHANNELS 3 Xrotation Yrotation Zrotation
				JOINT RightFoot
				{
					OFFSET 0.708754 -10.717769 -1.945823
					CHANNELS 3 Xrotation Yrotation Zrotation
					JOINT RightToeBase
					{
						OFFSET -0.108140 -7.191069 7.372968
						CHANNELS 3 Xrotation Yrotation Zrotation
						JOINT RightToe_End
						{
							OFFSET -0.070227 0.081735 4.479403
							CHANNELS 3 Xrotation Yrotation Zrotation
							End Site
							{
								OFFSET 0 0 0
							}
						}
					}
				}
			}
		}
	}
	JOINT Spine_virtual
	{
		OFFSET 0.000000 0.000000 0.000000
		CHANNELS 3 Xrotation Yrotation Zrotation
		JOINT Spine
		{
			OFFSET 0.000000 6.876099 0.125700
			CHANNELS 3 Xrotation Yrotation Zrotation
			JOINT Spine1
			{
				OFFSET 0.000000 5.730043 0.104720
				CHANNELS 3 Xrotation Yrotation Zrotation
				JOINT Spine1_split
				{
					OFFSET 0.000000 5.730043 0.104720
					CHANNELS 3 Xrotation Yrotation Zrotation
					JOINT Spine2
					{
						OFFSET 0.000000 5.730043 0.104720
						CHANNELS 3 Xrotation Yrotation Zrotation
						JOINT Neck_virtual
						{
							OFFSET 0.000000 0.000000 0.000000
							CHANNELS 3 Xrotation Yrotation Zrotation
							JOINT Neck
							{
								OFFSET 0.000000 10.314075 0.188496
								CHANNELS 3 Xrotation Yrotation Zrotation
								JOINT Head
								{
									OFFSET 0.000000 7.643700 -2.377400
									CHANNELS 3 Xrotation Yrotation Zrotation
									JOINT HeadTop_End
									{
										OFFSET 0.000000 43.788605 -13.619600
										CHANNELS 3 Xrotation Yrotation Zrotation
										End Site
										{
											OFFSET 0 0 0
										}
									}
								}
							}
						}
						JOINT LeftShoulder_virtual
						{
							OFFSET 0.000000 0.000000 0.000000
							CHANNELS 3 Xrotation Yrotation Zrotation
							JOINT LeftShoulder
							{
								OFFSET 2.196100 4.412489 0.087492
								CHANNELS 3 Xrotation Yrotation Zrotation
								JOINT LeftShoulder_split
								{
									OFFSET 2.196100 4.412489 0.087492
									CHANNELS 3 Xrotation Yrotation Zrotation
									JOINT LeftArm
									{
										OFFSET 8.771219 -2.981674 -0.026999
										CHANNELS 3 Xrotation Yrotation Zrotation
										JOINT LeftForeArm
										{
											OFFSET 8.512804 0.000000 -0.000000
											CHANNELS 3 Xrotation Yrotation Zrotation
											JOINT LeftHand
											{
												OFFSET 18.484802 0.000000 -0.000000
												CHANNELS 3 Xrotation Yrotation Zrotation
												End Site
												{
													OFFSET 0 0 0
												}
											}
										}
									}
								}
							}
						}
						JOINT RightShoulder_virtual
						{
							OFFSET 0.000000 0.000000 0.000000
							CHANNELS 3 Xrotation Yrotation Zrotation
							JOINT RightShoulder
							{
								OFFSET -2.196100 4.412496 0.070690
								CHANNELS 3 Xrotation Yrotation Zrotation
								JOINT RightShoulder_split
								{
									OFFSET -2.196100 4.412496 0.070690
									CHANNELS 3 Xrotation Yrotation Zrotation
									JOINT RightArm
									{
										OFFSET -8.771282 -2.981682 -0.094208
										CHANNELS 3 Xrotation Yrotation Zrotation
										JOINT RightForeArm
										{
											OFFSET -8.494598 0.000000 0.000000
											CHANNELS 3 Xrotation Yrotation Zrotation
											JOINT RightHand
											{
												OFFSET -18.483803 0.000000 0.000001
												CHANNELS 3 Xrotation Yrotation Zrotation
												End Site
												{
													OFFSET 0 0 0
												}
											}
										}
									}
								}
							}
						}
					}
				}
			}
		}
	}
}
MOTION
Frames: 4
Frame Time: 0.03333333
2.386899 30.482346 -0.600868 0.000000 0.000000 0.000000 171.468183 -76.318171 -178.065818 -5.924763 18.563175 12.752896 46.630603 12.419664 -8.705033 -30.476543 21.706913 -24.079412 -0.250589 -0.163703 0.206919 0.000000 0.000000 0.000000 167.190750 -78.136777 178.531186 -32.621868 13.582551 -20.912381 38.267538 -0.684858 -13.918791 -21.353258 16.266787 19.457761 2.420836 2.742874 0.840296 0.000000 0.000000 0.000000 170.298363 -78.385785 -178.863380 26.021434 -12.403732 7.435725 22.667767 -2.610889 0.824219 0.648977 -0.883491 1.408835 0.000000 0.000000 0.000000 21.857548 -2.870911 0.720094 12.411926 -2.976771 -5.705143 -26.429945 17.583122 -8.882394 0.000000 0.000000 0.000000 23.815787 -3.184765 1.080267 -0.698903 -10.691751 10.069479 -3.076368 -2.575823 1.315360 16.538581 18.136224 -75.727188 10.712577 -81.476609 8.950662 0.000000 0.000000 0.000000 22.407843 -2.773564 1.434602 6.893697 16.434221 13.120451 6.734679 4.218836 5.160029 -61.350993 52.648724 51.559667 178.004401 66.444080 -176.925846 0.000000 0.000000 0.000000 
2.375766 30.299829 -0.780863 0.000000 0.000000 0.000000 177.411568 -79.004306 -171.278277 -6.156349 19.751662 13.935273 47.765654 10.437971 -8.092665 -32.203358 19.022287 -24.239339 -1.511541 -0.116797 0.484227 0.000000 0.000000 0.000000 173.653926 -81.879987 -174.378855 -32.514036 11.250432 -22.838858 41.729901 -1.789396 -13.789803 -21.763781 13.628314 17.983490 3.165508 2.820453 0.620630 0.000000 0.000000 0.000000 177.328158 -80.689895 -171.471722 24.836456 -13.170714 6.909623 22.432527 -2.885023 1.074256 1.432367 -0.514883 1.478063 0.000000 0.000000 0.000000 21.616794 -3.183169 0.917452 11.546255 -2.758425 -7.378803 -22.947028 19.253701 -10.518734 0.000000 0.000000 0.000000 23.497613 -3.418291 1.356883 -0.657043 -9.591560 9.143280 -2.983740 -2.911489 1.243844 8.533242 26.776049 -70.976327 -2.130251 -86.025413 -2.965082 0.000000 0.000000 0.000000 22.111045 -3.044668 1.607641 7.235722 17.729008 13.320939 5.566613 3.971150 5.003989 -56.005611 46.933385 45.587616 177.636923 65.998083 -176.679208 0.000000 0.000000 0.000000 
2.326530 30.123001 -1.066656 0.000000 0.000000 0.000000 -169.026787 -82.625891 -157.057400 -6.942174 20.268460 15.677820 48.431632 8.104844 -6.897337 -32.985603 15.665720 -25.263070 -1.993687 -0.027314 0.602424 0.000000 0.000000 0.000000 -162.893427 -86.204548 -150.480515 -32.178876 8.819440 -24.885497 45.663971 -3.068464 -13.334321 -21.656366 10.684941 16.949825 3.550826 2.823006 0.213170 0.000000 0.000000 0.000000 -169.537617 -83.776437 -158.319017 23.270314 -13.260729 6.603210 21.857346 -3.097829 1.347343 1.711269 0.145755 1.203611 0.000000 0.000000 0.000000 21.374957 -3.467296 1.138170 9.947245 -2.541687 -7.687008 -19.379729 20.545757 -12.023526 0.000000 0.000000 0.000000 22.991650 -3.570563 1.623216 -0.583026 -8.689299 8.609065 -2.255708 -2.442740 0.796453 1.147739 29.855177 -66.991875 -155.343528 -86.766926 -155.293271 0.000000 0.000000 0.000000 21.736080 -3.292152 1.729659 7.573594 19.044032 13.234337 4.117852 3.692917 4.414818 -53.810747 42.204401 43.151001 178.140363 66.204470 -177.338991 0.000000 0.000000 0.000000 
2.269006 29.965357 -1.308655 0.000000 0.000000 0.000000 -126.635915 -85.856120 -114.364592 -8.205035 19.936887 17.526728 48.596731 6.014675 -5.300032 -33.126619 12.040114 -26.462472 -1.682468 0.103154 0.480148 0.000000 0.000000 0.000000 -66.257336 -86.558892 -53.589022 -31.256629 6.721233 -26.572009 49.436216 -4.371646 -12.824041 -21.466453 7.606915 16.422597 3.558442 2.730703 -0.147043 0.000000 0.000000 0.000000 -132.271954 -86.506491 -121.313599 21.521757 -12.643054 6.337698 20.961106 -3.161559 1.424726 1.258346 0.628079 0.630684 0.000000 0.000000 0.000000 21.038296 -3.653677 1.118615 8.069858 -2.310228 -6.673344 -15.797587 21.425805 -12.962101 0.000000 0.000000 0.000000 22.289885 -3.638777 1.614336 -0.496399 -8.134922 8.260081 -1.649775 -1.885494 0.009129 -2.753186 27.466977 -65.556415 -171.521418 -78.668029 -170.892767 0.000000 0.000000 0.000000 21.289391 -3.451185 1.625566 7.775269 20.117660 12.888241 2.606551 3.864822 3.925218 -53.363308 38.214311 42.918054 179.239627 67.146593 -178.708485 0.000000 0.000000 0.000000 
